# xmcd
#
# Track frame offsets: 
#        150
#        11013
#        30133
#        45516
#        62579
#        84954
#        98359
#        112427
#        135465
#        149703
#
# Disc length: 2259 seconds
#
# Revision: 0
# Processed by: cddbd v1.5.2PL0 Copyright (c) Steve Scherf et al.
# Submitted via: ExactAudioCopy v0.99pb5
#
DISCID=7908d10a
DTITLE=Yano - Bawal
DYEAR=1996
DGENRE=Rock
TTITLE0=Metro
TTITLE1=Dayo
TTITLE2=Askal
TTITLE3=Bawal
TTITLE4=Lahat
TTITLE5=Ate
TTITLE6=Astig
TTITLE7=Sana
TTITLE8=Diosdiosan
TTITLE9=Pyutcha
EXTD=
EXTT0=
EXTT1=
EXTT2=
EXTT3=
EXTT4=
EXTT5=
EXTT6=
EXTT7=
EXTT8=
EXTT9=
PLAYORDER=
